<svg xmlns="http://www.w3.org/2000/svg" width="240" height="360" viewBox="0 0 240 360" fill="none">
  <g stroke-linecap="round" stroke-linejoin="round">
    <g stroke="#91947a" stroke-width="1.5">
      <path d="M110 349C115 279 107 214 120 143C128 100 134 56 136 17M112 321C96 273 91 227 78 184C69 154 55 124 42 96M111 341C135 305 150 269 165 225C179 188 191 157 192 123"/>
    </g>
    <g stroke="#7e9a90" stroke-width=".8">
      <path d="M108 335C78 296 63 258 48 218C79 247 92 294 108 335Z" fill="#a4b8ac"/>
      <path d="M114 306C109 243 96 205 86 161C106 191 123 245 114 306Z" fill="#73968c"/>
      <path d="M123 320C147 278 175 254 215 238C180 263 150 286 123 320Z" fill="#a4b8ac"/>
      <path d="M119 282C126 222 143 181 163 145C149 193 134 235 119 282Z" fill="#8ca99d"/>
      <path d="M99 299C79 268 54 248 23 238C59 242 88 265 99 299Z" fill="#bcc8b5"/>
    </g>
    <g stroke="#dce0cc" stroke-width=".7">
      <path d="M104 325C84 289 69 255 53 228M115 289C114 244 102 199 90 174M132 309C156 281 180 260 204 245M122 268C133 218 147 183 158 158"/>
    </g>
    <g stroke="#a39773" stroke-width=".85">
      <path d="M136 41C128 34 129 22 136 10C141 22 142 34 136 41Z" fill="#ddd0aa"/>
      <path d="M134 59C123 56 119 45 121 31C131 37 136 47 134 59Z" fill="#c5b68e"/>
      <path d="M134 64C135 49 144 39 154 35C154 49 148 60 134 64Z" fill="#e6dabc"/>
      <path d="M132 81C119 77 115 66 116 53C127 59 132 68 132 81Z" fill="#dfd0ab"/>
      <path d="M131 86C135 71 144 64 156 59C153 73 146 84 131 86Z" fill="#c8ba94"/>
      <path d="M128 102C116 101 110 91 109 76C121 81 128 91 128 102Z" fill="#c8ba94"/>
      <path d="M128 108C131 94 143 87 154 83C152 97 144 105 128 108Z" fill="#e6dabc"/>
      <path d="M124 124C111 120 107 112 105 98C117 103 124 112 124 124Z" fill="#ddd0aa"/>
      <path d="M123 131C128 116 139 110 151 108C147 122 137 131 123 131Z" fill="#c8ba94"/>
      <path d="M121 145C108 142 102 133 100 120C112 124 118 135 121 145Z" fill="#e6dabc"/>
      <path d="M119 153C124 140 137 133 147 132C143 145 133 152 119 153Z" fill="#ddd0aa"/>
      <path d="M48 110C38 106 34 95 35 83C44 88 49 99 48 110Z" fill="#ddd0aa"/>
      <path d="M56 126C44 127 34 118 30 107C42 108 52 115 56 126Z" fill="#c8ba94"/>
      <path d="M58 131C54 117 57 106 64 97C68 110 65 122 58 131Z" fill="#e6dabc"/>
      <path d="M65 146C53 147 42 141 37 130C49 129 60 136 65 146Z" fill="#ddd0aa"/>
      <path d="M67 151C63 138 67 125 74 118C77 131 74 143 67 151Z" fill="#c8ba94"/>
      <path d="M72 167C59 168 50 162 44 151C58 151 68 156 72 167Z" fill="#e6dabc"/>
      <path d="M74 173C72 160 77 148 84 141C86 154 82 166 74 173Z" fill="#ddd0aa"/>
      <path d="M79 190C65 190 56 183 51 173C64 173 74 180 79 190Z" fill="#c8ba94"/>
      <path d="M192 142C186 134 187 122 193 112C198 123 197 135 192 142Z" fill="#e6dabc"/>
      <path d="M189 161C180 155 178 145 181 134C189 140 192 150 189 161Z" fill="#ddd0aa"/>
      <path d="M187 166C191 153 200 148 211 147C206 158 199 166 187 166Z" fill="#c8ba94"/>
      <path d="M182 183C173 177 171 167 174 156C182 163 185 173 182 183Z" fill="#c8ba94"/>
      <path d="M180 189C185 177 195 173 206 174C200 184 191 190 180 189Z" fill="#e6dabc"/>
      <path d="M174 206C165 199 164 190 167 179C176 186 178 196 174 206Z" fill="#ddd0aa"/>
      <path d="M171 214C177 202 188 199 199 201C192 211 182 215 171 214Z" fill="#c8ba94"/>
      <path d="M165 230C159 222 158 213 160 203C167 209 169 220 165 230Z" fill="#e6dabc"/>
    </g>
    <g stroke="#f4ecd6" stroke-width=".65" opacity=".9">
      <path d="m136 34 0-16m-4 36-9-17m12 22 15-18m-19 34-12-16m13 20 17-15m-23 33-13-15m14 20 20-13m-24 29-14-13m14 19 20-11m-24 27-13-14m14 21 19-13m-85-13-16-11m19 12 3-20m4 35-19-9m22 12 5-20m3 35-19-10m21 15 8-22m107-5-1-20m-4 40-5-17m6 18 16-10m-23 29-6-19m5 22 17-8m-24 29-6-17m5 22 18-6"/>
    </g>
  </g>
</svg>
