<svg xmlns="http://www.w3.org/2000/svg" width="240" height="360" viewBox="0 0 240 360" fill="none">
  <g stroke-linecap="round" stroke-linejoin="round">
    <g stroke="#85836a" stroke-width="1.6">
      <path d="M105 349C118 292 127 233 114 171L99 116M114 306C93 279 65 243 49 216M119 276C146 245 174 206 190 164M117 225C139 190 151 154 157 111M110 155C130 117 151 82 178 59"/>
    </g>
    <g stroke="#7c8369" stroke-width=".8">
      <path d="M109 322C81 312 66 294 60 270C87 279 104 297 109 322Z" fill="#b4b69c"/>
      <path d="M117 292C140 265 159 265 184 256C174 283 147 297 117 292Z" fill="#919e84"/>
      <path d="M98 284C69 276 54 260 50 236C76 244 92 262 98 284Z" fill="#8c977f"/>
      <path d="M122 247C98 229 86 211 89 186C111 201 120 221 122 247Z" fill="#a3ad91"/>
      <path d="M154 230C176 206 195 211 219 200C209 227 184 237 154 230Z" fill="#b9bda4"/>
      <path d="M166 212C148 195 146 171 154 151C170 169 174 188 166 212Z" fill="#84917a"/>
      <path d="M138 185C151 163 174 158 195 159C181 178 164 187 138 185Z" fill="#aab198"/>
      <path d="M133 113C112 97 109 80 112 60C131 75 138 93 133 113Z" fill="#a1ac91"/>
      <path d="M149 94C161 79 181 80 197 73C189 94 171 102 149 94Z" fill="#b4b69c"/>
    </g>
    <g stroke="#edf0dc" stroke-width=".7" opacity=".85">
      <path d="m106 315-39-36m57 10 50-28m-83 17-36-34m62-4-26-44m67 32 52-24m-44 2-10-45m-10 17 40-14m-54-57-17-36m41 24 31-11"/>
    </g>
    <g fill="#f1d4c9" stroke="#b67e7f" stroke-width=".9">
      <path d="M91 153C74 157 59 148 57 135C40 132 33 113 42 99C32 86 40 69 54 64C53 47 73 39 88 46C100 33 119 39 127 51C145 47 158 63 153 77C170 88 166 106 155 115C158 134 142 146 128 145C120 160 102 163 91 153Z" fill="#f5dfd2"/>
      <path d="M54 64C70 62 88 70 94 82C84 89 77 99 72 113C56 110 43 102 42 99M88 46C99 55 102 67 98 79C109 78 125 80 133 92C145 84 151 70 145 59M155 115C140 109 126 113 119 122C124 131 125 139 128 145M57 135C65 118 77 117 89 121C90 138 100 150 111 155"/>
      <path d="M78 130C64 122 63 102 74 92C70 76 87 63 102 68C116 58 134 73 132 87C149 94 144 115 132 121C128 138 106 145 96 134C89 137 83 134 78 130Z" fill="#e9bfb5"/>
      <path d="M74 92C87 89 96 96 99 105C87 110 81 119 78 130M102 68C100 81 105 88 115 93C126 94 137 91 139 101M132 121C118 114 103 119 96 134"/>
      <path d="M90 117C81 104 85 91 96 90C104 78 119 83 123 94C135 106 125 119 114 121C106 131 94 127 90 117Z" fill="#dca59e"/>
      <path d="M91 101C100 97 111 101 113 110C104 111 100 117 101 124M103 87C102 98 112 97 121 100M124 110C117 106 112 110 113 117" fill="#efc9bd"/>
      <path d="M104 101C110 95 117 100 116 106L110 111Z" fill="#b67879"/>
    </g>
    <g stroke="#b67e7f" stroke-width=".9">
      <path d="M182 173C167 168 167 153 174 144C172 136 184 129 191 135C199 128 210 137 207 145C219 157 208 174 195 176Z" fill="#efd1c4"/>
      <path d="M175 144C188 143 199 153 195 171M191 135C185 148 190 157 195 171M207 145C196 148 195 161 195 171"/>
      <path d="M175 66C160 57 160 43 168 38C163 27 174 18 183 25C193 19 204 31 199 39C209 50 198 65 185 69Z" fill="#f3dcd0"/>
      <path d="M168 38C181 39 185 49 183 62M183 25C177 37 182 44 187 47M199 39C188 44 186 55 183 62"/>
      <path d="M46 226C31 222 27 209 35 200C33 191 46 185 52 193C62 190 68 202 62 209C64 222 55 228 46 226Z" fill="#edcabe"/>
      <path d="M35 200C47 201 51 209 49 220M52 193C47 204 48 209 49 220M62 209 49 220"/>
    </g>
    <g fill="#929777" stroke="#7c8369" stroke-width=".8">
      <path d="m174 165 13 7 8-2-5 10-11-6ZM174 60l9 5 10-3-8 11-10-3ZM40 220l9 4 10-5-7 12-8-2Z"/>
    </g>
  </g>
</svg>
